#!OML:ASF H:\Male1\Project 1\Capture day 1\Session 1\Male1.ASF
:FULLY-SPECIFIED
:DEGREES
222
root 15.7286 15.2746 -1.58903 5.91394 -40.9318 -1.58638
lowerback 20.2091 2.33686 2.54557
upperback 13.9978 2.83705 4.03582
thorax 3.86284 1.18823 2.40428
lowerneck -7.64955 -8.11638 -1.43318
upperneck -1.17467 -11.3233 18.7618
head 2.15576 -5.38425 5.33754
rclavicle -6.91771e-014 -3.57812e-014
rhumerus -3.75368 34.4727 -80.2956
rradius 65.4824
rwrist -76.017
rhand -38.0837 -26.304
rfingers 7.12502
rthumb -11.12 -55.9894
lclavicle -6.91771e-014 -3.57812e-014
lhumerus -36.3252 -32.6172 86.8456
lradius 94.7079
lwrist 12.6957
lhand -15.3263 33.2265
lfingers 7.12502
lthumb 10.85 62.9262
rfemur -22.7821 -5.48135 27.8246
rtibia 42.2705
rfoot -21.6562 -19.6932
rtoes -32.1775
lfemur -25.1587 -10.958 -20.8947
ltibia 36.4384
lfoot -17.5851 12.8093
ltoes -5.81436
223
root 15.6615 15.2816 -1.56369 5.88786 -41.2512 -1.58225
lowerback 20.321 2.52205 2.30089
upperback 13.9578 3.04801 3.85455
thorax 3.74989 1.28644 2.30673
lowerneck -7.67223 -8.02488 -1.23303
upperneck -1.22818 -11.2137 18.8118
head 2.12467 -5.33388 5.32925
rclavicle 1.59028e-015 -1.35174e-014
rhumerus -4.93975 35.8132 -81.4585
rradius 66.2729
rwrist -76.5759
rhand -38.4017 -26.3516
rfingers 7.12502
rthumb -11.4267 -56.0202
lclavicle 1.59028e-015 -1.35174e-014
lhumerus -39.504 -31.5953 86.5945
lradius 96.7264
lwrist 12.5675
lhand -15.4729 33.1627
lfingers 7.12502
lthumb 10.7086 62.8698
rfemur -24.0681 -6.30946 27.7247
rtibia 44.7311
rfoot -19.9715 -18.4061
rtoes -34.3369
lfemur -24.6715 -10.7211 -20.8161
ltibia 36.1616
lfoot -17.6815 12.9486
ltoes -6.02411
224
root 15.5971 15.2914 -1.53901 5.79609 -41.5584 -1.46067
lowerback 20.4514 2.68843 2.04932
upperback 13.9239 3.23249 3.64325
thorax 3.63692 1.3724 2.18434
lowerneck -7.7275 -7.92489 -1.05113
upperneck -1.27675 -11.092 18.8386
head 2.09889 -5.27585 5.31621
rclavicle 7.15625e-014 2.38542e-015
rhumerus -6.04699 37.1046 -82.5806
rradius 67.0247
rwrist -77.1162
rhand -38.7446 -26.3617
rfingers 7.12502
rthumb -11.7574 -56.0117
lclavicle 7.15625e-014 2.38542e-015
lhumerus -42.5203 -30.6293 86.2526
lradius 98.5974
lwrist 12.5326
lhand -15.5736 33.1107
lfingers 7.12502
lthumb 10.6114 62.8228
rfemur -25.4735 -7.17942 27.4509
rtibia 47.2754
rfoot -18.266 -16.9424
rtoes -36.4249
lfemur -24.102 -10.5796 -20.8405
ltibia 35.7339
lfoot -17.7776 13.239
ltoes -6.25037
225
root 15.5341 15.302 -1.51549 5.63144 -41.7932 -1.22812
lowerback 20.6042 2.82734 1.79634
upperback 13.8917 3.38077 3.42384
thorax 3.51672 1.44075 2.05893
lowerneck -7.79119 -7.8305 -0.911548
upperneck -1.33669 -10.9728 18.8667
head 2.07408 -5.21914 5.30985
rclavicle -1.74931e-014 -1.98785e-014
rhumerus -7.0961 38.3196 -83.6402
rradius 67.7658
rwrist -77.6419
rhand -39.0744 -26.3576
rfingers 7.12502
rthumb -12.0754 -55.9891
lclavicle -1.74931e-014 -1.98785e-014
lhumerus -45.3639 -29.7695 85.8576
lradius 100.311
lwrist 12.5695
lhand -15.6409 33.0675
lfingers 7.12502
lthumb 10.5466 62.7828
rfemur -26.9056 -8.07156 27.0147
rtibia 49.7559
rfoot -16.7505 -15.4602
rtoes -38.2879
lfemur -23.4735 -10.5127 -20.9574
ltibia 35.1813
lfoot -17.8868 13.4719
ltoes -6.43005
226
root 15.471 15.3135 -1.49346 5.41357 -41.9192 -0.914344
lowerback 20.7568 2.93789 1.54556
upperback 13.8695 3.4911 3.22551
thorax 3.40834 1.48944 1.9613
lowerneck -7.85794 -7.75601 -0.838929
upperneck -1.41415 -10.8729 18.9184
head 2.05209 -5.17227 5.32
rclavicle -6.36111e-014 4.69132e-014
rhumerus -8.08548 39.4454 -84.5904
rradius 68.5255
rwrist -78.1368
rhand -39.3815 -26.3317
rfingers 7.12502
rthumb -12.3715 -55.9457
lclavicle -6.36111e-014 4.69132e-014
lhumerus -48.0104 -29.0346 85.4469
lradius 101.885
lwrist 12.6922
lhand -15.7099 33.1252
lfingers 7.12502
lthumb 10.48 62.844
rfemur -28.2812 -8.93283 26.4409
rtibia 52.0153
rfoot -15.6076 -14.1636
rtoes -39.5988
lfemur -22.8175 -10.4691 -21.1329
ltibia 34.5377
lfoot -17.952 13.5989
ltoes -6.58989
227
root 15.4063 15.3269 -1.47323 5.16179 -41.9225 -0.552006
lowerback 20.9023 3.02282 1.29312
upperback 13.8659 3.56579 3.0777
thorax 3.32261 1.51778 1.92548
lowerneck -7.92618 -7.70812 -0.850366
upperneck -1.5069 -10.8 18.999
head 2.03528 -5.13876 5.35044
rclavicle 7.23576e-014 -8.0309e-014
rhumerus -9.00977 40.4759 -85.3862
rradius 69.3185
rwrist -78.5616
rhand -39.6654 -26.2765
rfingers 7.12502
rthumb -12.6452 -55.8737
lclavicle 7.23576e-014 -8.0309e-014
lhumerus -50.4277 -28.4046 85.0585
lradius 103.318
lwrist 12.8985
lhand -15.7569 33.1528
lfingers 7.12502
lthumb 10.4347 62.8739
rfemur -29.5329 -9.69725 25.7461
rtibia 53.9114
rfoot -14.92 -13.2483
rtoes -40.1795
lfemur -22.153 -10.4079 -21.336
ltibia 33.834
lfoot -17.9439 13.5879
ltoes -6.78037
228
root 15.3392 15.3425 -1.45527 4.93288 -41.8108 -0.225061
lowerback 21.0449 3.08629 1.07767
upperback 13.8824 3.6163 3.00283
thorax 3.25983 1.53275 1.95181
lowerneck -8.00287 -7.68522 -0.92492
upperneck -1.60336 -10.7545 19.0833
head 2.02531 -5.11794 5.38986
rclavicle 1.19271e-014 -2.06736e-014
rhumerus -9.86846 41.3766 -86.0245
rradius 70.1304
rwrist -78.8696
rhand -39.907 -26.2006
rfingers 7.12502
rthumb -12.8782 -55.7832
lclavicle 1.19271e-014 -2.06736e-014
lhumerus -52.611 -27.8628 84.7144
lradius 104.631
lwrist 13.1795
lhand -15.8186 33.2209
lfingers 7.12502
lthumb 10.3751 62.9449
rfemur -30.6134 -10.3014 24.9928
rtibia 55.3336
rfoot -14.6757 -12.8272
rtoes -40.0336
lfemur -21.4959 -10.3226 -21.4951
ltibia 33.1048
lfoot -17.843 13.4684
ltoes -7.20539
229
root 15.2685 15.3611 -1.43957 4.80056 -41.621 -0.0162786
lowerback 21.1742 3.16252 0.99122
upperback 13.9168 3.70179 2.9832
thorax 3.22803 1.57103 1.95982
lowerneck -8.13549 -7.71155 -0.938566
upperneck -1.69892 -10.7817 19.1408
head 2.02707 -5.1305 5.40435
rclavicle 8.82604e-014 -3.4191e-014
rhumerus -10.6573 41.9661 -86.5561
rradius 70.9177
rwrist -79.0222
rhand -40.1069 -26.0814
rfingers 7.12502
rthumb -13.0709 -55.6519
lclavicle 8.82604e-014 -3.4191e-014
lhumerus -54.5216 -27.5247 84.3825
lradius 105.832
lwrist 13.5507
lhand -15.8909 33.2333
lfingers 7.12502
lthumb 10.3054 62.9608
rfemur -31.5132 -10.6889 24.251
rtibia 56.2122
rfoot -14.7574 -12.9286
rtoes -39.4521
lfemur -20.8747 -10.2189 -21.5367
ltibia 32.3813
lfoot -17.6593 13.2989
ltoes -7.97097
230
root 15.1944 15.3817 -1.42646 4.75873 -41.3605 0.061355
lowerback 21.3134 3.22963 0.996962
upperback 13.9511 3.79018 3.04208
thorax 3.19229 1.61301 1.99887
lowerneck -8.22827 -7.75572 -0.946411
upperneck -1.80269 -10.8272 19.1543
head 2.01814 -5.15495 5.40489
rclavicle -8.26944e-014 4.45278e-014
rhumerus -11.3914 42.4413 -86.9263
rradius 71.667
rwrist -79.147
rhand -40.2949 -25.8688
rfingers 7.12502
rthumb -13.252 -55.4275
lclavicle -8.26944e-014 4.45278e-014
lhumerus -56.2608 -27.2459 84.1388
lradius 106.95
lwrist 13.9761
lhand -16.0124 33.2486
lfingers 7.12502
lthumb 10.1882 62.9819
rfemur -32.2085 -10.8614 23.5267
rtibia 56.5256
rfoot -14.9952 -13.4767
rtoes -38.7588
lfemur -20.2864 -10.1425 -21.4507
ltibia 31.6866
lfoot -17.4397 13.1125
ltoes -8.90439
231
root 15.1161 15.4035 -1.41455 4.83493 -41.1078 0.0263638
lowerback 21.3804 3.31089 1.05545
upperback 13.9978 3.90336 3.16186
thorax 3.20484 1.66777 2.07255
lowerneck -8.30309 -7.80641 -0.916749
upperneck -1.92648 -10.8774 19.1081
head 1.9944 -5.18496 5.38213
rclavicle 7.15625e-015 1.43125e-014
rhumerus -12.0172 42.8073 -87.1173
rradius 72.356
rwrist -79.2858
rhand -40.4767 -25.593
rfingers 7.12502
rthumb -13.4272 -55.1403
lclavicle 7.15625e-015 1.43125e-014
lhumerus -57.8277 -26.9832 83.979
lradius 107.999
lwrist 14.4564
lhand -16.1779 33.1944
lfingers 7.12502
lthumb 10.0285 62.9355
rfemur -32.7433 -10.7687 22.8145
rtibia 56.2857
rfoot -15.3319 -14.2973
rtoes -38.5177
lfemur -19.767 -10.0478 -21.2444
ltibia 31.0391
lfoot -17.2602 12.9063
ltoes -9.71598
232
root 15.0351 15.4244 -1.40468 4.93444 -40.8182 -0.0375137
lowerback 21.4465 3.37245 1.13649
upperback 14.0544 3.99393 3.31648
thorax 3.22888 1.71068 2.17544
lowerneck -8.34892 -7.84158 -0.870848
upperneck -2.07943 -10.9001 19.021
head 1.95054 -5.20557 5.34814
rclavicle 3.65764e-014 -5.1684e-014
rhumerus -12.5059 43.0159 -87.1952
rradius 72.9756
rwrist -79.3967
rhand -40.6862 -25.3471
rfingers 7.12502
rthumb -13.6292 -54.881
lclavicle 3.65764e-014 -5.1684e-014
lhumerus -59.2585 -26.6741 83.9037
lradius 108.99
lwrist 14.9875
lhand -16.4191 33.1597
lfingers 7.12502
lthumb 9.79586 62.9119
rfemur -33.0995 -10.4727 22.0342
rtibia 55.5377
rfoot -15.7247 -15.2241
rtoes -37.8612
lfemur -19.2923 -10.0032 -20.9944
ltibia 30.4545
lfoot -17.1614 12.6815
ltoes -10.1587
